<svg width="80" height="80" viewBox="0 0 80 80" fill="none" xmlns="http://www.w3.org/2000/svg">
<rect width="80" height="80" rx="40" fill="#DFF9D2"/>
<g clip-path="url(#clip0_703_11612)">
<circle cx="40" cy="40" r="21.7" stroke="#18AC4C" stroke-width="3.4"/>
<path d="M35.907 45.521L30.5772 40.1912C30.4379 40.0502 30.2719 39.9382 30.0889 39.8617C29.9059 39.7853 29.7096 39.7459 29.5113 39.7459C29.313 39.7459 29.1166 39.7853 28.9337 39.8617C28.7507 39.9382 28.5847 40.0502 28.4453 40.1912C28.3043 40.3306 28.1923 40.4966 28.1158 40.6796C28.0394 40.8626 28 41.0589 28 41.2572C28 41.4555 28.0394 41.6518 28.1158 41.8348C28.1923 42.0178 28.3043 42.1838 28.4453 42.3232L34.8259 48.7037C35.4197 49.2976 36.3791 49.2976 36.973 48.7037L53.1147 32.5772C53.2557 32.4379 53.3678 32.2719 53.4442 32.0889C53.5206 31.9059 53.56 31.7096 53.56 31.5113C53.56 31.313 53.5206 31.1166 53.4442 30.9337C53.3678 30.7507 53.2557 30.5847 53.1147 30.4453C52.9753 30.3043 52.8093 30.1923 52.6263 30.1158C52.4434 30.0394 52.247 30 52.0487 30C51.8504 30 51.6541 30.0394 51.4711 30.1158C51.2881 30.1923 51.1221 30.3043 50.9828 30.4453L35.907 45.521Z" fill="#18AC4C"/>
</g>
<defs>
<clipPath id="clip0_703_11612">
<rect width="48" height="48" fill="white" transform="translate(16 16)"/>
</clipPath>
</defs>
</svg>
