<svg width="140" height="75" viewBox="0 0 140 75" fill="none" xmlns="http://www.w3.org/2000/svg">
<path d="M29.2293 6.09048C29.2293 5.22589 29.9302 4.52499 30.7948 4.52499H38.6799C39.5445 4.52499 40.2454 5.22588 40.2454 6.09048V54.3679C40.2454 55.2325 39.5445 55.9334 38.6799 55.9334H30.7948C29.9302 55.9334 29.2293 55.2325 29.2293 54.3679V33.9012H11.0161V54.3679C11.0161 55.2325 10.3152 55.9334 9.45059 55.9334H1.56548C0.70089 55.9334 0 55.2325 0 54.3679V6.09048C0 5.22589 0.700891 4.52499 1.56548 4.52499H9.45059C10.3152 4.52499 11.0161 5.22588 11.0161 6.09048V22.8851H29.2293V6.09048Z" fill="#0B6244"/>
<path d="M44.6495 42.6039V20.7786C44.6495 19.914 45.3504 19.2131 46.215 19.2131H54.1001C54.9647 19.2131 55.6656 19.914 55.6656 20.7786V39.5194C55.6656 40.67 55.9471 41.7226 56.5102 42.6773C57.0732 43.6076 57.8199 44.3542 58.7501 44.9173C59.7048 45.4558 60.7453 45.7251 61.8713 45.7251C63.0219 45.7251 64.0623 45.4558 64.9926 44.9173C65.9473 44.3542 66.6939 43.6076 67.2325 42.6773C67.7955 41.7226 68.0771 40.67 68.0771 39.5194V20.7786C68.0771 19.914 68.778 19.2131 69.6425 19.2131H77.5292C78.3932 19.2131 79.0938 19.913 79.0947 20.777L79.1283 54.3663C79.1292 55.2315 78.428 55.9334 77.5628 55.9334H69.6554C68.8002 55.9334 68.1032 55.2471 68.0901 54.392L68.0771 53.5465C66.8531 54.5992 65.4577 55.4193 63.891 56.0068C62.3242 56.5943 60.6718 56.8881 58.9337 56.8881C56.3143 56.8881 53.9153 56.2516 51.7365 54.9786C49.5823 53.6812 47.8564 51.9553 46.559 49.8011C45.286 47.6468 44.6495 45.2478 44.6495 42.6039Z" fill="#0B6244"/>
<path d="M85.1241 55.9334C84.2596 55.9334 83.5587 55.2325 83.5587 54.3679V2.41845C83.5587 1.55386 84.2596 0.852966 85.1242 0.852966H93.0093C93.8739 0.852966 94.5747 1.55386 94.5747 2.41845V54.3679C94.5747 55.2325 93.8739 55.9334 93.0093 55.9334H85.1241Z" fill="#0B6244"/>
<path fill-rule="evenodd" clip-rule="evenodd" d="M111.432 72.728C111.432 73.5926 110.731 74.2935 109.866 74.2935H101.981C101.116 74.2935 100.416 73.5926 100.416 72.728V20.7786C100.416 19.914 101.116 19.2131 101.981 19.2131H109.866C110.731 19.2131 111.432 19.914 111.432 20.7786V22.6648C112.582 21.3674 113.916 20.3147 115.434 19.5069C116.952 18.6745 118.702 18.2584 120.685 18.2584C123.378 18.2584 125.887 18.7602 128.213 19.7639C130.538 20.7676 132.583 22.163 134.345 23.95C136.132 25.7126 137.515 27.7567 138.494 30.0823C139.498 32.4079 140 34.9049 140 37.5732C140 40.2416 139.498 42.7508 138.494 45.1009C137.515 47.451 136.132 49.5196 134.345 51.3066C132.583 53.0692 130.538 54.4523 128.213 55.456C125.887 56.4597 123.378 56.9615 120.685 56.9615C118.702 56.9615 116.952 56.5454 115.434 55.713C113.916 54.8807 112.582 53.8281 111.432 52.5551V72.728ZM120.538 28.8338C119.045 28.8338 117.674 29.2377 116.426 30.0456C115.202 30.8289 114.222 31.8816 113.488 33.2035C112.754 34.5254 112.386 35.982 112.386 37.5732C112.386 39.1889 112.754 40.6577 113.488 41.9797C114.222 43.3016 115.202 44.3542 116.426 45.1376C117.674 45.921 119.045 46.3126 120.538 46.3126C122.056 46.3126 123.439 45.921 124.688 45.1376C125.936 44.3542 126.928 43.3016 127.662 41.9797C128.396 40.6577 128.764 39.1889 128.764 37.5732C128.764 35.982 128.396 34.5254 127.662 33.2035C126.928 31.8816 125.936 30.8289 124.688 30.0456C123.439 29.2377 122.056 28.8338 120.538 28.8338Z" fill="#0B6244"/>
</svg>
